<svg xmlns="http://www.w3.org/2000/svg" width="21.493" height="20.509" viewBox="0 0 21.493 20.509"><defs><style>.a{fill:#fff;}</style></defs><g transform="translate(1.66 -9.243)"><path class="a" d="M928.351,585.25c.784,2.318,5.337,6.553,6.045,7.389a.316.316,0,0,0,.248.112h10.735a.32.32,0,0,0,.3-.2c.608-1.474,4.387-10.839,3.185-13.329-.374-.773-.36-1.664-.829-2.132a8.145,8.145,0,0,0-1.781-1,1.492,1.492,0,0,1-.25-.187,4.453,4.453,0,0,0-1.375-1.2,11.444,11.444,0,0,0-2.266-.234,3.515,3.515,0,0,0-1.875-1.422,6.094,6.094,0,0,0-2.719.152,3.163,3.163,0,0,0-1.391-.84,4.712,4.712,0,0,0-2.374.07,3.385,3.385,0,0,0-1.889,1.658l-1.33,2.281s-2.448.813-2.92,2.27A12.392,12.392,0,0,0,928.351,585.25Z" transform="translate(-929.265 -562.999)"/></g></svg>