<svg xmlns="http://www.w3.org/2000/svg" width="21.226" height="30.644" viewBox="0 0 21.226 30.644"><defs><style>.a{fill:#fff;}</style></defs><path class="a" d="M928.351,585.25c.784,2.318,5.337,6.553,6.045,7.389a.316.316,0,0,0,.248.112h10.735a.32.32,0,0,0,.3-.2c.608-1.474,4.387-10.839,3.185-13.329-.374-.773-.36-1.664-.829-2.132a8.145,8.145,0,0,0-1.781-1,1.492,1.492,0,0,1-.25-.187,4.453,4.453,0,0,0-1.375-1.2,11.444,11.444,0,0,0-2.266-.234,3.515,3.515,0,0,0-1.875-1.422,5.267,5.267,0,0,0-2.348,0l-.491.3s-.122-4.162-.138-5.428.163-5.791-2.078-5.812-2.158,3.342-2.515,6.02-.758,5.891-.937,7.006a1.506,1.506,0,0,1-1.116,1.295s-2.044.863-2.516,2.32A11.35,11.35,0,0,0,928.351,585.25Z" transform="translate(-927.873 -562.107)"/></svg>