<svg xmlns="http://www.w3.org/2000/svg" width="77" height="90.184" viewBox="0 0 77 90.184"><defs><style>.a,.c{fill:#fff;}.a{opacity:0.6;}.b{fill:#434343;}</style></defs><g transform="translate(-939.897 -276.502)"><ellipse class="a" cx="38.5" cy="8.5" rx="38.5" ry="8.5" transform="translate(939.897 349.686)"/><ellipse class="b" cx="12.5" cy="2.5" rx="12.5" ry="2.5" transform="translate(965.897 355.686)"/><path class="c" d="M-1792.25,20838.686a6.784,6.784,0,0,1-4.984-2.061,6.788,6.788,0,0,1-2.055-4.979v-12.354a6.679,6.679,0,0,1-3.786-2.453,6.775,6.775,0,0,1-1.527-4.32v-13.941a9.586,9.586,0,0,1,1.794-5.711,9.724,9.724,0,0,1,4.712-3.588,11.308,11.308,0,0,1-2.254-6.9,11.243,11.243,0,0,1,3.452-8.236,11.242,11.242,0,0,1,8.232-3.451,11.245,11.245,0,0,1,8.237,3.451,11.243,11.243,0,0,1,3.452,8.236,11.312,11.312,0,0,1-2.259,6.9,9.738,9.738,0,0,1,4.717,3.588,9.586,9.586,0,0,1,1.794,5.711v13.941a6.8,6.8,0,0,1-1.527,4.32,6.679,6.679,0,0,1-3.786,2.453v12.354a6.772,6.772,0,0,1-2.061,4.979,6.764,6.764,0,0,1-4.979,2.061Z" transform="translate(2767.063 -20494.186)"/></g></svg>