<svg xmlns="http://www.w3.org/2000/svg" xmlns:xlink="http://www.w3.org/1999/xlink" width="79.407" height="114.79" viewBox="0 0 79.407 114.79"><defs><style>.a,.b{fill:#fff;}.a{stroke:#707070;}.c{clip-path:url(#a);}.d{fill:#434343;}.e{clip-path:url(#b);}.f{fill:#bfbfbf;}</style><clipPath id="a"><rect class="a" width="79" height="24" transform="matrix(1, -0.017, 0.017, 1, 986.834, 472.691)"/></clipPath><clipPath id="b"><rect class="a" width="79" height="24" transform="matrix(1, -0.017, 0.017, 1, 986.834, 449.346)"/></clipPath></defs><g transform="translate(-922.937 -448.213)"><g transform="translate(18 5.001)"><path class="b" d="M240.217,21019.451l-27.622-13.811a5.913,5.913,0,0,1-3.455-5.713v-29.881a6.048,6.048,0,0,1,1.129-3.586,6.969,6.969,0,0,1,2.991-2.391l27.622-10.361a6.643,6.643,0,0,1,4.516,0l27.627,10.361a6.954,6.954,0,0,1,2.986,2.391,6.048,6.048,0,0,1,1.129,3.586v29.881a5.89,5.89,0,0,1-3.587,5.713l-27.622,13.811a6.02,6.02,0,0,1-2.823.732A6.421,6.421,0,0,1,240.217,21019.451Z" transform="translate(700.992 -20510.102)"/><g transform="translate(-81.897 61.314)"><g class="c"><path class="d" d="M64.281-55.781a1.418,1.418,0,0,1,1.66-.266,1.456,1.456,0,0,1,1,1.461v18.992A1.409,1.409,0,0,1,65.344-34H46.352a1.456,1.456,0,0,1-1.461-1,1.418,1.418,0,0,1,.266-1.66l7.3-7.3A25.405,25.405,0,0,0,34-51.531a25.089,25.089,0,0,0-17.863,7.105A25.486,25.486,0,0,0,7.969-26.961q0,1.461-1.594,1.461H2.656a1.537,1.537,0,0,1-1.129-.465,1.7,1.7,0,0,1-.465-1.262A31.745,31.745,0,0,1,11.289-49.34,31.827,31.827,0,0,1,34-58.437a31.422,31.422,0,0,1,23.242,9.7ZM65.344-25.5a1.537,1.537,0,0,1,1.129.465,1.7,1.7,0,0,1,.465,1.262A31.745,31.745,0,0,1,56.711-1.66,31.827,31.827,0,0,1,34,7.438a31.422,31.422,0,0,1-23.242-9.7L3.719,4.781a1.418,1.418,0,0,1-1.66.266,1.456,1.456,0,0,1-1-1.461V-15.406A1.409,1.409,0,0,1,2.656-17H21.648a1.456,1.456,0,0,1,1.461,1,1.418,1.418,0,0,1-.266,1.66l-7.3,7.3A25.405,25.405,0,0,0,34,.531,25.089,25.089,0,0,0,51.863-6.574a25.486,25.486,0,0,0,8.168-17.465q0-1.461,1.594-1.461Z" transform="matrix(0.999, 0.035, -0.017, 0.5, 990.344, 484.268)"/></g><g class="e"><path class="f" d="M64.281-55.781a1.418,1.418,0,0,1,1.66-.266,1.456,1.456,0,0,1,1,1.461v18.992A1.409,1.409,0,0,1,65.344-34H46.352a1.456,1.456,0,0,1-1.461-1,1.418,1.418,0,0,1,.266-1.66l7.3-7.3A25.405,25.405,0,0,0,34-51.531a25.089,25.089,0,0,0-17.863,7.105A25.486,25.486,0,0,0,7.969-26.961q0,1.461-1.594,1.461H2.656a1.537,1.537,0,0,1-1.129-.465,1.7,1.7,0,0,1-.465-1.262A31.745,31.745,0,0,1,11.289-49.34,31.827,31.827,0,0,1,34-58.437a31.422,31.422,0,0,1,23.242,9.7ZM65.344-25.5a1.537,1.537,0,0,1,1.129.465,1.7,1.7,0,0,1,.465,1.262A31.745,31.745,0,0,1,56.711-1.66,31.827,31.827,0,0,1,34,7.438a31.422,31.422,0,0,1-23.242-9.7L3.719,4.781a1.418,1.418,0,0,1-1.66.266,1.456,1.456,0,0,1-1-1.461V-15.406A1.409,1.409,0,0,1,2.656-17H21.648a1.456,1.456,0,0,1,1.461,1,1.418,1.418,0,0,1-.266,1.66l-7.3,7.3A25.405,25.405,0,0,0,34,.531,25.089,25.089,0,0,0,51.863-6.574a25.486,25.486,0,0,0,8.168-17.465q0-1.461,1.594-1.461Z" transform="matrix(0.999, 0.035, -0.017, 0.5, 990.344, 484.268)"/></g></g></g></g></svg>