<svg xmlns="http://www.w3.org/2000/svg" width="24.643" height="49.285" viewBox="0 0 24.643 49.285"><defs><style>.a{fill:#f2f2f2;}</style></defs><path class="a" d="M110.983-18.108a34.744,34.744,0,0,0-9.241,24,34.284,34.284,0,0,0,9.241,23.872,2.07,2.07,0,0,0,1.669.77,1.963,1.963,0,0,0,1.412-.642l1.412-1.412a1.686,1.686,0,0,0,.128-2.7,30.571,30.571,0,0,1-5.455-9.369A29.324,29.324,0,0,1,107.9,5.893a29.324,29.324,0,0,1,2.246-10.524A30.571,30.571,0,0,1,115.6-14a1.686,1.686,0,0,0-.128-2.7l-1.412-1.54a2.209,2.209,0,0,0-1.412-.513A2.257,2.257,0,0,0,110.983-18.108Zm13.348,9.883a2.389,2.389,0,0,0-1.54-.513,1.854,1.854,0,0,0-1.54.642,21.384,21.384,0,0,0-3.658,6.674,21.969,21.969,0,0,0-1.476,7.316,21.969,21.969,0,0,0,1.476,7.316,21.384,21.384,0,0,0,3.658,6.674,1.854,1.854,0,0,0,1.54.642,2.389,2.389,0,0,0,1.54-.513l1.412-1.412a1.963,1.963,0,0,0,.642-1.412,1.741,1.741,0,0,0-.513-1.283,17.507,17.507,0,0,1-2.5-4.749,15.418,15.418,0,0,1-1.091-5.262A15.418,15.418,0,0,1,123.369.63a17.507,17.507,0,0,1,2.5-4.749,1.741,1.741,0,0,0,.513-1.283,1.963,1.963,0,0,0-.642-1.412Z" transform="translate(-101.742 18.75)"/></svg>