<svg xmlns="http://www.w3.org/2000/svg" width="52.363" height="52.363" viewBox="0 0 52.363 52.363"><defs><style>.a{fill:#fff;}</style></defs><path class="a" d="M64.954-47.891a3.846,3.846,0,0,1,1.169-.234,4.149,4.149,0,0,1,1.87.468,3.058,3.058,0,0,1,1.4,1.4,4.15,4.15,0,0,1,.468,1.87v33.662q0,3.039-3.273,5.26a13.82,13.82,0,0,1-7.948,2.221,13.82,13.82,0,0,1-7.948-2.221q-3.273-2.221-3.273-5.26t3.273-5.26A13.82,13.82,0,0,1,58.643-18.2a15.37,15.37,0,0,1,3.74.468V-37.372L39.941-28.723v25.48q0,3.039-3.273,5.26a13.82,13.82,0,0,1-7.948,2.221,13.82,13.82,0,0,1-7.948-2.221Q17.5-.2,17.5-3.242T20.773-8.5a13.82,13.82,0,0,1,7.948-2.221,15.37,15.37,0,0,1,3.74.468V-33.4A3.487,3.487,0,0,1,35.032-36.9Z" transform="translate(-17.5 48.125)"/></svg>