<svg xmlns="http://www.w3.org/2000/svg" xmlns:xlink="http://www.w3.org/1999/xlink" width="510" height="410" viewBox="0 0 510 410"><defs><style>.a{fill:#e20a16;}.b{opacity:0.3;fill:url(#a);}.c{clip-path:url(#b);}.d{fill:#fff;opacity:0.4;}.e{fill:rgba(1,102,164,0.88);stroke:rgba(1,102,164,0.24);opacity:0.7;}.f{fill:#4a6551;}.g,.h,.j{fill:none;}.g{stroke:#fff;}.i,.k{stroke:none;}.k{fill:#fff;}</style><radialGradient id="a" cx="0.5" cy="0.5" r="1.011" gradientTransform="matrix(0.008, 1, -0.668, 0.005, 0.83, -0.002)" gradientUnits="objectBoundingBox"><stop offset="0" stop-color="#0166a4"/><stop offset="1" stop-color="#0166a4" stop-opacity="0.651"/></radialGradient><clipPath id="b"><rect class="a" width="250" height="166" transform="translate(-11419.682 15520.84)"/></clipPath></defs><g transform="translate(10477 -16074.304)"><g class="c" transform="translate(1072.682 675.465)"><g transform="translate(-31212.885 28210.455) rotate(180)"><circle class="d" cx="6.748" cy="6.748" r="6.748" transform="translate(-19929.969 12630.519)"/><g class="e" transform="translate(-19926.189 12634.298)"><circle class="i" cx="2.969" cy="2.969" r="2.969"/><circle class="j" cx="2.969" cy="2.969" r="3.469"/></g></g><g transform="translate(-31101.885 28172.455) rotate(180)"><circle class="d" cx="6.748" cy="6.748" r="6.748" transform="translate(-19929.969 12630.519)"/><g class="e" transform="translate(-19926.189 12634.298)"><circle class="i" cx="2.969" cy="2.969" r="2.969"/><circle class="j" cx="2.969" cy="2.969" r="3.469"/></g></g><g transform="translate(-31290.885 28228.455) rotate(180)"><circle class="d" cx="6.748" cy="6.748" r="6.748" transform="translate(-19929.969 12630.519)"/><g class="e" transform="translate(-19926.189 12634.298)"><circle class="i" cx="2.969" cy="2.969" r="2.969"/><circle class="j" cx="2.969" cy="2.969" r="3.469"/></g></g><g transform="translate(-31304.381 28158.959) rotate(180)"><circle class="d" cx="6.748" cy="6.748" r="6.748" transform="translate(-19929.969 12630.519)"/><g class="e" transform="translate(-19926.189 12634.298)"><circle class="i" cx="2.969" cy="2.969" r="2.969"/><circle class="j" cx="2.969" cy="2.969" r="3.469"/></g></g><g transform="translate(22.432 -464.326)"><circle class="d" cx="22.5" cy="22.5" r="22.5" transform="translate(-11303.096 16078.767)"/><path class="a" d="M-1800.786,20792.021a2.072,2.072,0,0,1-1.54-.646,2.144,2.144,0,0,1-.635-1.562v-3.875a2.052,2.052,0,0,1-1.17-.771,2.132,2.132,0,0,1-.472-1.352v-4.375a3.052,3.052,0,0,1,.554-1.793,3,3,0,0,1,1.456-1.125,3.583,3.583,0,0,1-.7-2.166,3.555,3.555,0,0,1,1.066-2.584,3.451,3.451,0,0,1,2.543-1.084,3.453,3.453,0,0,1,2.544,1.084,3.554,3.554,0,0,1,1.066,2.584,3.585,3.585,0,0,1-.7,2.166,3.009,3.009,0,0,1,1.457,1.125,3.051,3.051,0,0,1,.554,1.793v4.375a2.139,2.139,0,0,1-.472,1.352,2.049,2.049,0,0,1-1.17.771v3.875a2.137,2.137,0,0,1-.636,1.563,2.065,2.065,0,0,1-1.538.646Z" transform="translate(-9480.494 -4679.922)"/><path class="a" d="M3,0,6,4H0Z" transform="translate(-11286.137 16120.998) rotate(-150)"/></g><g transform="translate(-636.807 -8266.16)"><path class="f" d="M-11213.905,24003.979v-154.715h-141.387s-9.2,78.219,36.234,119.631S-11213.905,24003.979-11213.905,24003.979Z" transform="translate(9.905)"/><g transform="translate(470 201)"><path class="g" d="M-10845.009,23876.436h-101.749"/><path class="g" d="M-10845.009,23876.436h-101.749" transform="translate(163)"/><path class="g" d="M-10620.215,23876.436h53.95v-210.123"/><path class="g" d="M-10566.265,23600.531v-356.357H-11227.4v475.143h70.3v-31.078"/><path class="g" d="M-11144.991,23720.34h20.139"/><path class="g" d="M-11073.486,23720.34h8.923v156.395h55.19"/><path class="g" d="M-11227.4,23507.756h85.327v53.533h-5.226"/><path class="g" d="M-11154.56,23561.289h-29.953v-17.336h-23.963"/><path class="g" d="M-11207.455,23536.051v-28.678"/><path class="g" d="M-11157.746,23561.289v17.207h-22.306"/><path class="g" d="M-11193.562,23578.5v15.678h3.187"/><path class="g" d="M-11227.4,23622.563h29.755v-9.957h15.55v-17.922h24.982v38.365" transform="translate(0 -0.51)"/><path class="g" d="M-11196.621,23632.539h6.245v-2.932h8.03v2.295h16.188"/><path class="g" d="M-11227.4,23645.922h35.235"/><path class="g" d="M-11196.621,23645.922v-5.48"/><path class="g" d="M-11185.66,23645.922h28.169v26.258"/><path class="g" d="M-11157.491,23679.955h-27.786"/><path class="g" d="M-11184.13,23645.922v25.365"/><path class="g" d="M-11184.13,23719.316v-31.078"/><g class="g" transform="translate(-11178.5 23661.5) rotate(-90)"><rect class="i" width="7" height="15"/><rect class="j" x="0.5" y="0.5" width="6" height="14"/></g><g class="g" transform="translate(-11174.5 23654.5) rotate(-90)"><rect class="i" width="5" height="7"/><rect class="j" x="0.5" y="0.5" width="4" height="6"/></g><g class="h" transform="translate(-11180 23690)"><path class="i" d="M0,20.777v-7H5V0h7V20.777Z"/><path class="k" d="M 10.99970054626465 19.77740097045898 L 10.99970054626465 13.77720069885254 L 10.99970054626465 1.000000476837158 L 6.000400066375732 1.000000476837158 L 6.000400066375732 13.77720069885254 L 6.000400066375732 14.77720069885254 L 5.000400066375732 14.77720069885254 L 1.000000238418579 14.77720069885254 L 1.000000238418579 19.77740097045898 L 10.99970054626465 19.77740097045898 M 11.99970054626465 20.77740097045898 L 2.731323149873788e-07 20.77740097045898 L 2.731323149873788e-07 13.77720069885254 L 5.000400066375732 13.77720069885254 L 5.000400066375732 4.852295205637347e-07 L 11.99970054626465 4.852295205637347e-07 L 11.99970054626465 13.77720069885254 L 11.99970054626465 20.77740097045898 Z"/></g><g class="g" transform="translate(-11180 23694)"><rect class="i" width="5" height="7"/><rect class="j" x="0.5" y="0.5" width="4" height="6"/></g><g class="g" transform="translate(-11211 23665)"><rect class="i" width="7" height="15"/><rect class="j" x="0.5" y="0.5" width="6" height="14"/></g><g class="g" transform="translate(-11204 23665)"><rect class="i" width="7" height="15"/><rect class="j" x="0.5" y="0.5" width="6" height="14"/></g><g class="g" transform="translate(-11197 23669)"><rect class="i" width="5" height="7"/><rect class="j" x="0.5" y="0.5" width="4" height="6"/></g><g class="g" transform="translate(-11216 23669)"><rect class="i" width="5" height="7"/><rect class="j" x="0.5" y="0.5" width="4" height="6"/></g><g class="g" transform="translate(-11211 23680)"><rect class="i" width="7" height="15"/><rect class="j" x="0.5" y="0.5" width="6" height="14"/></g><g class="g" transform="translate(-11204 23680)"><rect class="i" width="7" height="15"/><rect class="j" x="0.5" y="0.5" width="6" height="14"/></g><g class="g" transform="translate(-11197 23684)"><rect class="i" width="5" height="7"/><rect class="j" x="0.5" y="0.5" width="4" height="6"/></g><g class="g" transform="translate(-11216 23684)"><rect class="i" width="5" height="7"/><rect class="j" x="0.5" y="0.5" width="4" height="6"/></g><g class="g" transform="translate(-11210 23562)"><circle class="i" cx="5" cy="5" r="5"/><circle class="j" cx="5" cy="5" r="4.5"/></g><g class="g" transform="translate(-10764 23853)"><circle class="i" cx="6" cy="6" r="6"/><circle class="j" cx="6" cy="6" r="5.5"/></g><g class="g" transform="translate(-10761 23869)"><rect class="i" width="6" height="4"/><rect class="j" x="0.5" y="0.5" width="5" height="3"/></g><path class="g" d="M-10756.479,23869.506v-5"/><path class="g" d="M-10758.038,23869.506v-5h-6.521v5" transform="translate(3.559 -15)"/><path class="g" d="M-10756.479,23869.506v-5" transform="translate(-3)"/><path class="g" d="M-10489.615,23966.771V23150.98h-813.945v380.826h-8.612v300.23h133.673v134.734h40.436"/><g transform="translate(0 -14)"><g class="g" transform="translate(-11364 23852)"><rect class="i" width="14" height="8" rx="4"/><rect class="j" x="0.5" y="0.5" width="13" height="7" rx="3.5"/></g><path class="g" d="M-11350.61,23855.121h25.747a2.049,2.049,0,0,1,1.477,1.918,1.758,1.758,0,0,1-1.477,1.74l-25.747-1.391"/><path class="g" d="M25.61,7.5A3.49,3.49,0,0,1,22.5,5.6l3.249.175a1.764,1.764,0,0,0,1.476-1.74,2.061,2.061,0,0,0-1.476-1.918h-3.09A3.5,3.5,0,1,1,25.61,7.5Z" transform="translate(-11350.61 23853)"/></g><g transform="translate(0 -503)"><g class="g" transform="translate(-11364 23852)"><rect class="i" width="14" height="8" rx="4"/><rect class="j" x="0.5" y="0.5" width="13" height="7" rx="3.5"/></g><path class="g" d="M-11350.61,23855.121h25.747a2.049,2.049,0,0,1,1.477,1.918,1.758,1.758,0,0,1-1.477,1.74l-25.747-1.391"/><path class="g" d="M25.61,7.5A3.49,3.49,0,0,1,22.5,5.6l3.249.175a1.764,1.764,0,0,0,1.476-1.74,2.061,2.061,0,0,0-1.476-1.918h-3.09A3.5,3.5,0,1,1,25.61,7.5Z" transform="translate(-11350.61 23853)"/></g><g transform="translate(-35150 12664.5) rotate(-90)"><g class="g" transform="translate(-11364 23852)"><rect class="i" width="14" height="8" rx="4"/><rect class="j" x="0.5" y="0.5" width="13" height="7" rx="3.5"/></g><path class="g" d="M-11350.61,23855.121h25.747a2.049,2.049,0,0,1,1.477,1.918,1.758,1.758,0,0,1-1.477,1.74l-25.747-1.391"/><path class="g" d="M25.61,7.5A3.49,3.49,0,0,1,22.5,5.6l3.249.175a1.764,1.764,0,0,0,1.476-1.74,2.061,2.061,0,0,0-1.476-1.918h-3.09A3.5,3.5,0,1,1,25.61,7.5Z" transform="translate(-11350.61 23853)"/></g><g transform="translate(-34600 12647.5) rotate(-90)"><g class="g" transform="translate(-11364 23852)"><rect class="i" width="14" height="8" rx="4"/><rect class="j" x="0.5" y="0.5" width="13" height="7" rx="3.5"/></g><path class="g" d="M-11350.61,23855.121h25.747a2.049,2.049,0,0,1,1.477,1.918,1.758,1.758,0,0,1-1.477,1.74l-25.747-1.391"/><path class="g" d="M25.61,7.5A3.49,3.49,0,0,1,22.5,5.6l3.249.175a1.764,1.764,0,0,0,1.476-1.74,2.061,2.061,0,0,0-1.476-1.918h-3.09A3.5,3.5,0,1,1,25.61,7.5Z" transform="translate(-11350.61 23853)"/></g><g transform="translate(-34189 12645.271) rotate(-90)"><g class="g" transform="translate(-11364 23852)"><rect class="i" width="14" height="8" rx="4"/><rect class="j" x="0.5" y="0.5" width="13" height="7" rx="3.5"/></g><path class="g" d="M-11350.61,23855.121h25.747a2.049,2.049,0,0,1,1.477,1.918,1.758,1.758,0,0,1-1.477,1.74l-25.747-1.391"/><path class="g" d="M25.61,7.5A3.49,3.49,0,0,1,22.5,5.6l3.249.175a1.764,1.764,0,0,0,1.476-1.74,2.061,2.061,0,0,0-1.476-1.918h-3.09A3.5,3.5,0,1,1,25.61,7.5Z" transform="translate(-11350.61 23853)"/></g><path class="g" d="M-11346.151,23849.264v-716.715"/><path class="g" d="M-11200,24004.324h60.078v-20.3"/><path class="g" d="M-11062.4,24003.711v-19.687h42.45v19.688"/><path class="g" d="M-11062.4,24003.711v-19.687h84.9v19.688" transform="translate(119.969)"/><path class="g" d="M-11024.108,23984.023h194.828v19.688" transform="translate(282.39)"/><path class="g" d="M-10744.793,23984.023h-34.924v17.3"/><path class="g" d="M-10486.314,23985.352v18.359s118.279-2.246,152.354-25.436"/><path class="g" d="M-10330.34,23976.691l22.173-16.064"/><path class="g" d="M-10308.167,23616.4h-138.777V23132.52"/></g></g><g transform="translate(-31210.633 28319.455) rotate(180)"><circle class="d" cx="6.748" cy="6.748" r="6.748" transform="translate(-19929.969 12630.519)"/><g class="e" transform="translate(-19926.189 12634.298)"><circle class="i" cx="2.969" cy="2.969" r="2.969"/><circle class="j" cx="2.969" cy="2.969" r="3.469"/></g></g></g></g></svg>