<svg id="Layer_1" data-name="Layer 1" xmlns="http://www.w3.org/2000/svg" viewBox="0 0 775.43 232.46"><defs><style>.cls-1{fill:#0065a4;}.cls-1,.cls-2,.cls-3{fill-rule:evenodd;}.cls-2{fill:#fff;}.cls-3{fill:#ed1c24;}</style></defs><polygon class="cls-1" points="71.33 232.46 0 0 775.43 0 692.44 161.71 71.33 232.46"/><path class="cls-2" d="M715.6,260.45A5.55,5.55,0,1,0,710,254.9,5.51,5.51,0,0,0,715.6,260.45Zm0-10.21a4.66,4.66,0,1,1-4.67,4.66A4.65,4.65,0,0,1,715.6,250.24Zm1,4.94a1.58,1.58,0,0,0,1.66-1.71c0-1.31-1-1.65-2.15-1.65h-2.62v6.24h.9v-2.88h1.16l1.6,2.88h1Zm-.65-2.46c.74,0,1.41.06,1.41.85s-1.16.71-2,.71h-1v-1.56Z" transform="translate(-33.23 -181.41)"/><path class="cls-2" d="M326.28,248.5c2.8-5.39,3.74-6.79,10.84-6.77h18.05c5.55,0,5.57,1.11,2.17,7.92l-23.79,47.09c-3.35,6.64-4.25,7.13-10.64,7.13l-19.08,0c-5,0-4.87-1.66-1.71-7.65Z" transform="translate(-33.23 -181.41)"/><path class="cls-2" d="M352,269.4c2.8-5.38,3.81-6.7,10.9-6.71h18.23c5.55,0,5.32,1,1.93,7.79l-13.63,26.1c-3.26,6.65-4.66,7.42-10.34,7.26l-18.88,0c-4.95,0-5.16-1.22-2-7.18Zm7.25-15.48c-1-5.23,6-10.9,16.89-12.63,10.54-1.67,19.93,0,21.12,5.6,1.1,5.2-6.79,11.5-17.35,13S360.32,259.67,359.23,253.92Z" transform="translate(-33.23 -181.41)"/><path class="cls-2" d="M420.34,262.69h34s4.45-.34,2.26,4.38c-2,4.4-4.81,5.89-7.45,6.23-.5.06-2.57.11-3.73.11H419.57c-4.15,0-4.42,2,1.2,3.68,0,0,16.7,4.91,22.18,7.66,4.15,2.08,6.36,4.73,6.36,6.86,0,2.43-2.31,4.84-6.23,7a45.92,45.92,0,0,1-19.81,5.25H373.48c-2.18,0-3.58-1.49-2.32-3.76,2.28-4.13,3.49-5.64,4.3-6.34s1.72-1.38,5.73-1.37h25.45c6.17-.07,6.1-1.82,0-3.72,0,0-12.94-3.93-14.46-4.44-3.94-1.31-7.22-4.66-6.78-7.52s2.09-4.64,5.75-6.82,11.21-5.54,14.33-6.21a27.26,27.26,0,0,1,7-.82C416.5,262.72,420.34,262.69,420.34,262.69Z" transform="translate(-33.23 -181.41)"/><path class="cls-2" d="M529.94,290.86c-2.06-11.45,15.85-24,36.54-27.69,21.26-3.79,40.29,1.07,42.54,13.44,1.78,9.83-12.66,24.34-37,27.54C550.6,307,532,302.3,529.94,290.86Zm36.44-10.81c4.27-5.84,9.84-8.34,12.28-6.5,2.18,1.62,1.62,7.31-2.65,13.16S566.05,297,562.6,295C560,293.39,562.11,285.91,566.38,280.05Z" transform="translate(-33.23 -181.41)"/><path class="cls-2" d="M229,290.86c-2.06-11.45,15.86-24,36.55-27.69,21.26-3.79,40.29,1.07,42.54,13.44,1.78,9.83-12.66,24.34-37,27.54C249.63,307,231,302.3,229,290.86Zm36.45-10.81c4.27-5.84,9.84-8.34,12.28-6.5,2.18,1.62,1.62,7.31-2.65,13.16s-10,10.29-13.41,8.24C259,293.39,261.14,285.91,265.41,280.05Z" transform="translate(-33.23 -181.41)"/><path class="cls-2" d="M486.49,283c5.49-8.16,10.25-10.34,13.48-9.66,2.31.55,2.94,2.44,2.94,4.29,0,2.39-1.54,5.88-3.67,9-2.76,4-6.08,8.11-11.27,8.11h-3.41c-2.71,0-3.07-2.31-1.23-5.83s1.71-3.73,3.16-5.88C488.71,279.67,485,285.14,486.49,283Zm-43,25.39,12.69-25.23c4.62-8.15,8.63-11.88,17.44-16,7.67-3.59,11.18-4.43,20.76-4.43h16.8c9.75,0,15.62,2.56,18.5,6.32,2.41,3.15,2.34,7.75-.21,13.4-3.71,8.3-4,11-9.53,14.58-.85.55-5.06,2.71-5.93,3.13-4.8,2.32-10.19,3.76-18.25,3.76H480c-3.25,0-5.72,1.44-7.57,5.37-1.42,4.47-4.11,6.26-9.59,6.26l-17.5-.06C440.85,315.81,440.25,313.44,443.52,308.38Z" transform="translate(-33.23 -181.41)"/><path class="cls-2" d="M606.88,290.06s5.23-10.17,8.38-14.05c6.55-8.05,16.94-11.91,29.16-13,4.12-.39,11.64-.28,13.32-.28.67,0,2.94.38,1.73,3s-5.58,11.64-5.58,11.64c-5.14.33-8.75,1.53-10.6,3.6-3.53,3.86-7.13,9.6-11,17.44-1.88,3.81-4.37,5.5-8.29,5.5H604.48c-4,.16-4-2.29-1.48-6.57Z" transform="translate(-33.23 -181.41)"/><path class="cls-2" d="M653.5,297s9.21-18.82,9.3-19c.36-.84.85-.71-1.92-.71-3.39,0-4.21,0-2.77-3l4.13-8.77c1.48-3.13,2.17-2.86,4.58-2.86h3.36c.5,0,.55-.06.75-.49.08-.13,3.31-6.66,3.31-6.66,1.91-4.09,3.58-5.44,8.68-5.58h21.13c4.16-.05,4.07,1.06,1.52,7.16-2.38,5.71-2.22,5.57,2.18,5.57,4.6,0,5.46,1.87,1.6,9.11-3.06,6.06-2.53,5.53-8.7,5.53-5.35,0-5.77,2.13-8.8,7.95l-5.94,11.34c-2.23,4.62-3,7.23-10,7.23H654.14C650.44,303.85,651.28,301.15,653.5,297Z" transform="translate(-33.23 -181.41)"/><path class="cls-2" d="M144.15,288.4l18.57-36.35c2.64-5.73,5.67-6.75,14.37-6.72h37.52c19.68.67,28.38,6.06,28.25,15.29-.38,8.23-9.92,15.91-25.91,21.87,0,0-10.68,4.39-21.14,4.36s-10.07,0-10.07,0c-7.11,0-9.34.76-11.38,6.91-2.4,7.19-4,10.1-12.76,10.1l-19.35,0c-5.87,0-5.66-1.53-2.43-7.28ZM196,260c-6.71,2.37-11.86,6.64-10.64,10.09s6.75,3.78,13.46,1.42,12.06-6.54,10.84-10S202.74,257.67,196,260Z" transform="translate(-33.23 -181.41)"/><path class="cls-3" d="M196.44,310.63c-34.32,9.12-66.48.15-71.84-20s18-44.37,52.34-53.49c24.41-6.48,47.71-3.82,61.08,5.51l1.12-1.53c-14.73-11.75-41.78-16.08-70.55-9.58-39.69,9-67.6,35.14-62.33,58.48s41.72,35,81.42,26a113.39,113.39,0,0,0,37.5-15.59l-1-1.76A99.85,99.85,0,0,1,196.44,310.63Z" transform="translate(-33.23 -181.41)"/></svg>